<svg width="40.000000" height="40.000000" viewBox="0 0 40 40" fill="none" xmlns="http://www.w3.org/2000/svg" xmlns:xlink="http://www.w3.org/1999/xlink">
	<desc>
			Created with Pixso.
	</desc>
	<g id="Combined Shape">
		<path d="M20 0C8.95435 0 0 8.95435 0 20C0 31.0457 8.95435 40 20 40C31.0457 40 40 31.0457 40 20C40 8.95435 31.0457 0 20 0ZM29 20C29 18.259 28.9866 17.0134 28.9598 16.2634C28.9062 15.4866 28.7858 14.8169 28.5983 14.2544C28.3572 13.5847 27.9889 13.0022 27.4933 12.5066C26.9978 12.0112 26.4152 11.6428 25.7455 11.4019C25.183 11.2144 24.5201 11.1003 23.7567 11.0603C22.9933 11.02 21.7411 11 20 11C18.2589 11 17.0067 11.02 16.2433 11.0603C15.4799 11.1003 14.817 11.2144 14.2545 11.4019C13.5848 11.6428 13.0022 12.0112 12.5067 12.5066C12.0111 13.0022 11.6428 13.5847 11.4017 14.2544C11.2142 14.8169 11.1005 15.48 11.0603 16.2434C11.0201 17.0066 11 18.259 11 20C11 21.741 11.0201 22.9934 11.0603 23.7566C11.1005 24.52 11.2142 25.1831 11.4017 25.7456C11.6428 26.4153 12.0111 26.9978 12.5067 27.4934C13.0022 27.9888 13.5848 28.3438 14.2545 28.5581C14.817 28.7722 15.4799 28.8997 16.2433 28.9397C17.0067 28.98 18.2589 29 20 29C21.7411 29 22.9933 28.98 23.7567 28.9397C24.5201 28.8997 25.183 28.7856 25.7455 28.5981C26.4152 28.3572 26.9978 27.9888 27.4933 27.4934C27.9889 26.9978 28.3572 26.4153 28.5983 25.7456C28.7858 25.1831 28.8995 24.52 28.9397 23.7566C28.9799 22.9934 29 21.741 29 20ZM27.0312 25.3037C27.192 24.8481 27.2992 24.125 27.3527 23.134C27.3795 22.5447 27.3929 21.7144 27.3929 20.6428L27.3929 19.3572C27.3929 18.259 27.3795 17.4287 27.3527 16.8662C27.2992 15.8481 27.192 15.125 27.0312 14.6965C26.7098 13.8662 26.1339 13.2903 25.3036 12.9688C24.875 12.8081 24.1519 12.7009 23.1339 12.6475C22.5446 12.6206 21.7143 12.6072 20.6429 12.6072L19.3572 12.6072C18.2858 12.6072 17.4554 12.6206 16.8661 12.6475C15.875 12.7009 15.1519 12.8081 14.6964 12.9688C13.8661 13.2903 13.2902 13.8662 12.9688 14.6965C12.8081 15.125 12.7009 15.8481 12.6473 16.8662C12.6206 17.4553 12.6072 18.2856 12.6072 19.3572L12.6072 20.6428C12.6072 21.7144 12.6206 22.5447 12.6473 23.134C12.7009 24.125 12.8081 24.8481 12.9688 25.3037C13.317 26.134 13.8929 26.71 14.6964 27.0312C15.1519 27.1919 15.875 27.2991 16.8661 27.3528C17.4554 27.3794 18.2858 27.3928 19.3572 27.3928L20.6429 27.3928C21.7411 27.3928 22.5714 27.3794 23.1339 27.3528C24.1519 27.2991 24.875 27.1919 25.3036 27.0312C26.1339 26.6831 26.7098 26.1072 27.0312 25.3037ZM25.9062 15.1785C25.8794 15.4731 25.7656 15.7278 25.5647 15.9419C25.3638 16.1562 25.1161 16.2634 24.8214 16.2634C24.5267 16.2634 24.2723 16.1562 24.058 15.9419C23.8438 15.7278 23.7366 15.4731 23.7366 15.1785C23.7366 14.884 23.8438 14.6294 24.058 14.4153C24.2723 14.2009 24.5267 14.0938 24.8214 14.0938C25.1161 14.0938 25.3705 14.2009 25.5848 14.4153C25.7991 14.6294 25.9062 14.884 25.9062 15.1785ZM22.3103 16.0022C21.6005 15.5869 20.8304 15.3794 20 15.3794C19.1697 15.3794 18.3997 15.5869 17.6898 16.0022C16.9799 16.4172 16.4174 16.9797 16.0023 17.6897C15.5872 18.3994 15.3795 19.1697 15.3795 20C15.3795 20.8303 15.5872 21.6003 16.0023 22.3103C16.4174 23.0201 16.9799 23.5826 17.6898 23.9978C18.3997 24.4128 19.1697 24.6204 20 24.6204C20.8304 24.6204 21.6005 24.4128 22.3103 23.9978C23.0201 23.5826 23.5826 23.0201 23.9978 22.3103C24.413 21.6003 24.6206 20.8303 24.6206 20C24.6206 19.1697 24.413 18.3994 23.9978 17.6897C23.5826 16.9797 23.0201 16.4172 22.3103 16.0022ZM22.1294 22.1294C21.5402 22.7188 20.8303 23.0134 20 23.0134C19.1696 23.0134 18.4598 22.7188 17.8705 22.1294C17.2812 21.54 16.9866 20.8303 16.9866 20C16.9866 19.1697 17.2812 18.4597 17.8705 17.8706C18.4598 17.2812 19.1696 16.9866 20 16.9866C20.8303 16.9866 21.5402 17.2812 22.1294 17.8706C22.7188 18.4597 23.0133 19.1697 23.0133 20C23.0133 20.8303 22.7188 21.54 22.1294 22.1294Z" clip-rule="evenodd" fill-rule="evenodd" fill="#FFFFFF" fill-opacity="1.000000"/>
	</g>
	<defs/>
</svg>
