<svg width="40.000000" height="40.000000" viewBox="0 0 40 40" fill="none" xmlns="http://www.w3.org/2000/svg" xmlns:xlink="http://www.w3.org/1999/xlink">
	<desc>
			Created with Pixso.
	</desc>
	<g id="Combined Shape">
		<path d="M20 0C8.95435 0 0 8.95435 0 20C0 31.0457 8.95435 40 20 40C31.0457 40 40 31.0457 40 20C40 8.95435 31.0457 0 20 0ZM29.9038 17.0625C29.9038 16.8031 29.8894 16.6156 29.8606 16.5C30.7548 15.8364 31.5193 15.0432 32.1538 14.1201C31.2885 14.4951 30.4231 14.7405 29.5577 14.8557C30.5385 14.25 31.2019 13.4136 31.5481 12.3462C30.6538 12.8655 29.6875 13.2261 28.649 13.428C28.2163 12.9951 27.7188 12.6489 27.1562 12.3894C26.5938 12.1299 25.9807 12 25.3173 12C24.5096 12 23.7596 12.2019 23.0673 12.6057C22.375 13.0095 21.8269 13.5649 21.4231 14.2717C21.0193 14.9783 20.8173 15.7356 20.8173 16.5432C20.8173 16.8894 20.8462 17.2356 20.9038 17.5818C19.0577 17.4951 17.3197 17.0337 15.6899 16.197C14.0601 15.3606 12.6827 14.2356 11.5577 12.822C11.125 13.5432 10.9087 14.3005 10.9087 15.0938C10.9087 15.887 11.0962 16.6155 11.4712 17.2788C11.8462 17.9424 12.3365 18.4905 12.9423 18.9231C12.2212 18.8943 11.5432 18.7788 10.9087 18.4038C10.9087 19.4712 11.2548 20.4231 11.9471 21.2595C12.6394 22.0963 13.5048 22.63 14.5432 22.8606C14.1394 22.947 13.7356 22.9905 13.3318 22.9905C13.0721 22.9905 12.7981 22.9761 12.5096 22.947C12.7981 23.8413 13.3245 24.5842 14.089 25.1755C14.8534 25.7668 15.7404 26.0625 16.75 26.0625C15.0769 27.3606 13.1875 28.0095 11.0818 28.0095C10.6778 28.0095 10.3172 27.9951 10 27.9663C12.1057 29.322 14.4279 30 16.9663 30C19.6202 30 21.9712 29.322 24.0193 27.9663C25.8943 26.7549 27.351 25.125 28.3894 23.0769C29.399 21.1443 29.9038 19.1394 29.9038 17.0625Z" clip-rule="evenodd" fill-rule="evenodd" fill="#FFFFFF" fill-opacity="1.000000"/>
	</g>
	<defs/>
</svg>
